<svg width="24" height="25" viewBox="0 0 24 25" fill="none" xmlns="http://www.w3.org/2000/svg">
<g clip-path="url(#clip0_436_117)">
<path d="M24 8.50627L20 11.4883V9.49927C20 8.70362 19.6839 7.94056 19.1213 7.37795C18.5587 6.81534 17.7956 6.49927 17 6.49927H14.915L9.915 1.49927H0V3.49927H9.086L12.086 6.49927H3C2.20435 6.49927 1.44129 6.81534 0.87868 7.37795C0.31607 7.94056 0 8.70362 0 9.49927L0 24.4993H20V19.5103L24 22.4923V8.50627ZM18 22.4993H2V9.49927C2 9.23405 2.10536 8.9797 2.29289 8.79216C2.48043 8.60462 2.73478 8.49927 3 8.49927H17C17.2652 8.49927 17.5196 8.60462 17.7071 8.79216C17.8946 8.9797 18 9.23405 18 9.49927V22.4993ZM22 18.5063L20 17.0153V13.9833L22 12.4923V18.5063Z" fill="black"/>
</g>
<defs>
<clipPath id="clip0_436_117">
<rect width="24" height="24" fill="white" transform="translate(0 0.5)"/>
</clipPath>
</defs>
</svg>
