<svg width="70" height="19" viewBox="0 0 70 19" fill="none" xmlns="http://www.w3.org/2000/svg">
<path d="M5.712 18.384C3.904 18.384 2.576 17.928 1.728 17.016C0.88 16.104 0.456 14.592 0.456 12.48C0.456 10.8 0.736 8.992 1.296 7.056C1.872 5.12 2.784 3.464 4.032 2.088C5.296 0.695999 6.896 -1.43051e-06 8.832 -1.43051e-06C10.032 -1.43051e-06 11 0.263999 11.736 0.792C12.472 1.32 12.84 2.128 12.84 3.216C12.84 3.904 12.704 4.448 12.432 4.848C12.16 5.232 11.736 5.424 11.16 5.424C10.584 5.424 10.128 5.216 9.792 4.8C10.08 4.656 10.336 4.368 10.56 3.936C10.784 3.504 10.896 3.056 10.896 2.592C10.896 2.16 10.776 1.808 10.536 1.536C10.312 1.264 9.944 1.128 9.432 1.128C8.584 1.128 7.776 1.712 7.008 2.88C6.24 4.032 5.616 5.488 5.136 7.248C4.672 9.008 4.44 10.704 4.44 12.336C4.44 13.552 4.648 14.48 5.064 15.12C5.48 15.76 6.232 16.08 7.32 16.08C8.264 16.08 9.136 15.872 9.936 15.456C10.736 15.04 11.424 14.448 12 13.68L12.552 13.92C12.152 14.928 11.56 15.768 10.776 16.44C9.992 17.112 9.152 17.608 8.256 17.928C7.36 18.232 6.512 18.384 5.712 18.384ZM20.5937 18.144C19.6177 18.144 18.8977 17.888 18.4337 17.376C17.9857 16.848 17.7617 16.2 17.7617 15.432C17.7617 15.096 17.8017 14.72 17.8817 14.304C17.9617 13.872 18.0417 13.456 18.1217 13.056C18.2177 12.656 18.2817 12.4 18.3137 12.288C18.4417 11.728 18.5617 11.176 18.6737 10.632C18.7857 10.088 18.8417 9.648 18.8417 9.312C18.8417 8.496 18.5537 8.088 17.9777 8.088C17.5617 8.088 17.1937 8.296 16.8737 8.712C16.5537 9.112 16.2977 9.64 16.1057 10.296L14.4737 18H11.0177L14.4977 1.68L18.0497 1.2L16.7537 7.248C17.5537 6.352 18.4897 5.904 19.5617 5.904C20.3777 5.904 21.0257 6.128 21.5057 6.576C21.9857 7.024 22.2257 7.704 22.2257 8.616C22.2257 9.08 22.1697 9.6 22.0577 10.176C21.9457 10.736 21.7857 11.424 21.5777 12.24C21.4497 12.736 21.3297 13.224 21.2177 13.704C21.1217 14.168 21.0737 14.536 21.0737 14.808C21.0737 15.128 21.1457 15.376 21.2897 15.552C21.4337 15.728 21.6817 15.816 22.0337 15.816C22.5137 15.816 22.8977 15.648 23.1857 15.312C23.4737 14.96 23.7617 14.424 24.0497 13.704H25.0577C24.4657 15.464 23.7777 16.648 22.9937 17.256C22.2257 17.848 21.4257 18.144 20.5937 18.144ZM26.9269 18.144C26.0149 18.144 25.2549 17.832 24.6469 17.208C24.0389 16.584 23.7349 15.608 23.7349 14.28C23.7349 13.096 23.9669 11.856 24.4309 10.56C24.9109 9.248 25.6149 8.144 26.5429 7.248C27.4869 6.336 28.6069 5.88 29.9029 5.88C30.5589 5.88 31.0469 5.992 31.3669 6.216C31.6869 6.44 31.8469 6.736 31.8469 7.104V7.272L32.1109 6H35.5669L33.8389 14.16C33.7749 14.4 33.7429 14.656 33.7429 14.928C33.7429 15.616 34.0709 15.96 34.7269 15.96C35.1749 15.96 35.5589 15.752 35.8789 15.336C36.2149 14.92 36.4789 14.376 36.6709 13.704H37.6789C37.0869 15.432 36.3509 16.608 35.4709 17.232C34.6069 17.84 33.7349 18.144 32.8549 18.144C32.1829 18.144 31.6389 17.96 31.2229 17.592C30.8229 17.208 30.5829 16.656 30.5029 15.936C30.0389 16.592 29.5189 17.128 28.9429 17.544C28.3829 17.944 27.7109 18.144 26.9269 18.144ZM28.4869 15.816C28.8869 15.816 29.2789 15.632 29.6629 15.264C30.0629 14.88 30.3349 14.36 30.4789 13.704L31.6309 8.28C31.6309 8.072 31.5509 7.872 31.3909 7.68C31.2309 7.472 30.9829 7.368 30.6469 7.368C30.0069 7.368 29.4309 7.744 28.9189 8.496C28.4069 9.232 28.0069 10.128 27.7189 11.184C27.4309 12.224 27.2869 13.144 27.2869 13.944C27.2869 14.744 27.3989 15.256 27.6229 15.48C27.8629 15.704 28.1509 15.816 28.4869 15.816ZM39.0557 18.144C38.2877 18.144 37.6637 17.904 37.1837 17.424C36.7197 16.944 36.4877 16.224 36.4877 15.264C36.4877 14.864 36.5517 14.344 36.6797 13.704L38.1197 6.96H37.3277L37.5197 6H38.3117L39.0317 2.688L42.5837 2.208L41.7677 6H43.2077L43.0157 6.96H41.5757L40.0397 14.16C39.9757 14.4 39.9437 14.656 39.9437 14.928C39.9437 15.248 40.0157 15.48 40.1597 15.624C40.3197 15.752 40.5757 15.816 40.9277 15.816C41.3917 15.816 41.8237 15.624 42.2237 15.24C42.6237 14.84 42.9117 14.328 43.0877 13.704H44.0957C43.5037 15.432 42.7437 16.608 41.8157 17.232C40.8877 17.84 39.9677 18.144 39.0557 18.144ZM45.4541 18.144C44.6861 18.144 44.0621 17.904 43.5821 17.424C43.1181 16.944 42.8861 16.224 42.8861 15.264C42.8861 14.864 42.9501 14.344 43.0781 13.704L44.5181 6.96H43.7261L43.9181 6H44.7101L45.4301 2.688L48.9821 2.208L48.1661 6H49.6061L49.4141 6.96H47.9741L46.4381 14.16C46.3741 14.4 46.3421 14.656 46.3421 14.928C46.3421 15.248 46.4141 15.48 46.5581 15.624C46.7181 15.752 46.9741 15.816 47.3261 15.816C47.7901 15.816 48.2221 15.624 48.6221 15.24C49.0221 14.84 49.3101 14.328 49.4861 13.704H50.4941C49.9021 15.432 49.1421 16.608 48.2141 17.232C47.2861 17.84 46.3661 18.144 45.4541 18.144ZM53.4846 4.704C52.9566 4.704 52.5086 4.52 52.1406 4.152C51.7726 3.784 51.5886 3.336 51.5886 2.808C51.5886 2.28 51.7726 1.832 52.1406 1.464C52.5086 1.08 52.9566 0.887999 53.4846 0.887999C54.0126 0.887999 54.4606 1.08 54.8286 1.464C55.2126 1.832 55.4046 2.28 55.4046 2.808C55.4046 3.336 55.2126 3.784 54.8286 4.152C54.4606 4.52 54.0126 4.704 53.4846 4.704ZM51.8526 18.144C51.0846 18.144 50.4606 17.904 49.9806 17.424C49.5166 16.944 49.2846 16.224 49.2846 15.264C49.2846 14.864 49.3486 14.344 49.4766 13.704L51.1086 6H54.5646L52.8366 14.16C52.7726 14.4 52.7406 14.656 52.7406 14.928C52.7406 15.248 52.8126 15.48 52.9566 15.624C53.1166 15.752 53.3726 15.816 53.7246 15.816C54.1886 15.816 54.6206 15.624 55.0206 15.24C55.4206 14.84 55.7086 14.328 55.8846 13.704H56.8926C56.3006 15.432 55.5406 16.608 54.6126 17.232C53.6846 17.84 52.7646 18.144 51.8526 18.144ZM59.259 18.144C58.091 18.144 57.179 17.84 56.523 17.232C55.867 16.608 55.539 15.64 55.539 14.328C55.539 13.224 55.755 12.008 56.187 10.68C56.619 9.352 57.323 8.208 58.299 7.248C59.275 6.272 60.515 5.784 62.019 5.784C63.779 5.784 64.659 6.552 64.659 8.088C64.659 8.984 64.403 9.808 63.891 10.56C63.379 11.312 62.699 11.92 61.851 12.384C61.003 12.832 60.099 13.088 59.139 13.152C59.107 13.504 59.091 13.744 59.091 13.872C59.091 15.2 59.587 15.864 60.579 15.864C61.027 15.864 61.507 15.744 62.019 15.504C62.531 15.264 62.995 14.96 63.411 14.592C62.979 16.96 61.595 18.144 59.259 18.144ZM59.307 12C59.915 11.984 60.483 11.784 61.011 11.4C61.555 11.016 61.987 10.528 62.307 9.936C62.643 9.328 62.811 8.696 62.811 8.04C62.811 7.384 62.611 7.056 62.211 7.056C61.651 7.056 61.091 7.568 60.531 8.592C59.987 9.6 59.579 10.736 59.307 12Z" fill="black"/>
<path d="M67.3041 18.096C66.7761 18.096 66.3281 17.912 65.9601 17.544C65.5921 17.176 65.4081 16.728 65.4081 16.2C65.4081 15.672 65.5921 15.224 65.9601 14.856C66.3281 14.472 66.7761 14.28 67.3041 14.28C67.8321 14.28 68.2801 14.472 68.6481 14.856C69.0321 15.224 69.2241 15.672 69.2241 16.2C69.2241 16.728 69.0321 17.176 68.6481 17.544C68.2801 17.912 67.8321 18.096 67.3041 18.096Z" fill="#6B21A8"/>
</svg>
