<svg width="24" height="25" viewBox="0 0 24 25" fill="none" xmlns="http://www.w3.org/2000/svg">
<g clip-path="url(#clip0_436_113)">
<path d="M14.2002 16.761C11.2886 15.5282 8.97325 13.2075 7.7472 10.293L11.1472 6.887L4.8872 0.622L1.7162 3.792C1.1662 4.34514 0.731342 5.00186 0.436795 5.72415C0.142247 6.44645 -0.00614821 7.21998 0.000195101 8C0.000195101 15.248 9.25219 24.5 16.5002 24.5C17.2801 24.5068 18.0536 24.3586 18.7758 24.0641C19.498 23.7695 20.1545 23.3344 20.7072 22.784L23.8782 19.613L17.6132 13.348L14.2002 16.761ZM19.2922 21.37C18.925 21.734 18.489 22.0214 18.0097 22.2154C17.5304 22.4094 17.0172 22.5061 16.5002 22.5C10.2672 22.5 2.0002 14.233 2.0002 8C1.99431 7.48283 2.09116 6.96964 2.28514 6.49019C2.47911 6.01074 2.76635 5.57458 3.1302 5.207L4.8872 3.45L8.3242 6.887L5.38919 9.822L5.63419 10.436C6.35544 12.3653 7.48296 14.1171 8.94035 15.5725C10.3977 17.028 12.1509 18.1533 14.0812 18.872L14.6872 19.103L17.6132 16.176L21.0502 19.613L19.2922 21.37ZM14.0002 2.5V0.5C16.6515 0.502912 19.1933 1.55742 21.068 3.43215C22.9428 5.30688 23.9973 7.84873 24.0002 10.5H22.0002C21.9978 8.379 21.1542 6.34555 19.6544 4.84578C18.1546 3.346 16.1212 2.50238 14.0002 2.5ZM14.0002 6.5V4.5C15.591 4.50159 17.1162 5.13424 18.2411 6.25911C19.366 7.38399 19.9986 8.90919 20.0002 10.5H18.0002C18.0002 9.43913 17.5788 8.42172 16.8286 7.67157C16.0785 6.92143 15.0611 6.5 14.0002 6.5Z" fill="black"/>
</g>
<defs>
<clipPath id="clip0_436_113">
<rect width="24" height="24" fill="white" transform="translate(0 0.5)"/>
</clipPath>
</defs>
</svg>
