<svg width="18" height="18" viewBox="0 0 18 18" fill="none" xmlns="http://www.w3.org/2000/svg">
<g clip-path="url(#clip0_474_174)">
<path d="M8.19825 2.06269C8.03727 1.4704 7.68587 0.947524 7.19826 0.574746C6.71064 0.201968 6.11391 0 5.50012 0C4.88634 0 4.28961 0.201968 3.80199 0.574746C3.31438 0.947524 2.96298 1.4704 2.802 2.06269H0V3.56269H2.802C2.96298 4.15499 3.31438 4.67787 3.80199 5.05064C4.28961 5.42342 4.88634 5.62539 5.50012 5.62539C6.11391 5.62539 6.71064 5.42342 7.19826 5.05064C7.68587 4.67787 8.03727 4.15499 8.19825 3.56269H18V2.06269H8.19825ZM5.49975 4.12519C5.24016 4.12519 4.9864 4.04822 4.77056 3.904C4.55472 3.75978 4.3865 3.55479 4.28716 3.31497C4.18782 3.07514 4.16183 2.81124 4.21247 2.55664C4.26311 2.30204 4.38812 2.06817 4.57167 1.88462C4.75523 1.70106 4.98909 1.57606 5.24369 1.52541C5.49829 1.47477 5.76219 1.50076 6.00202 1.6001C6.24185 1.69944 6.44683 1.86767 6.59105 2.08351C6.73527 2.29935 6.81225 2.55311 6.81225 2.81269C6.81166 3.16061 6.67318 3.4941 6.42717 3.74012C6.18116 3.98613 5.84766 4.1246 5.49975 4.12519V4.12519Z" fill="#6B21A8"/>
<path d="M12.5002 6.1875C11.8871 6.1897 11.2915 6.39248 10.8044 6.76489C10.3173 7.1373 9.96541 7.65887 9.8025 8.25H0V9.75H9.8025C9.96321 10.3424 10.3145 10.8655 10.802 11.2384C11.2896 11.6114 11.8864 11.8134 12.5002 11.8134C13.1141 11.8134 13.7109 11.6114 14.1985 11.2384C14.686 10.8655 15.0373 10.3424 15.198 9.75H18V8.25H15.198C15.0351 7.65887 14.6832 7.1373 14.1961 6.76489C13.709 6.39248 13.1134 6.1897 12.5002 6.1875V6.1875ZM12.5002 10.3125C12.2407 10.3125 11.9869 10.2355 11.7711 10.0913C11.5552 9.94708 11.387 9.7421 11.2877 9.50227C11.1883 9.26244 11.1623 8.99854 11.213 8.74394C11.2636 8.48934 11.3886 8.25548 11.5722 8.07192C11.7557 7.88837 11.9896 7.76336 12.2442 7.71272C12.4988 7.66208 12.7627 7.68807 13.0025 7.78741C13.2424 7.88675 13.4473 8.05497 13.5916 8.27081C13.7358 8.48665 13.8127 8.74041 13.8127 9C13.8124 9.34798 13.6739 9.68158 13.4279 9.92764C13.1818 10.1737 12.8482 10.3121 12.5002 10.3125V10.3125Z" fill="#6B21A8"/>
<path d="M5.49975 12.375C4.88621 12.3767 4.2901 12.5793 3.80253 12.9517C3.31496 13.3242 2.96276 13.846 2.79975 14.4375H0V15.9375H2.802C2.96298 16.5298 3.31438 17.0527 3.80199 17.4254C4.28961 17.7982 4.88634 18.0002 5.50012 18.0002C6.11391 18.0002 6.71064 17.7982 7.19826 17.4254C7.68587 17.0527 8.03727 16.5298 8.19825 15.9375H18V14.4375H8.19825C8.03531 13.8462 7.68333 13.3246 7.19607 12.9522C6.7088 12.5797 6.11304 12.377 5.49975 12.375ZM5.49975 16.5C5.24016 16.5 4.9864 16.423 4.77056 16.2788C4.55472 16.1346 4.3865 15.9296 4.28716 15.6898C4.18782 15.4499 4.16183 15.186 4.21247 14.9314C4.26311 14.6768 4.38812 14.443 4.57167 14.2594C4.75523 14.0759 4.98909 13.9509 5.24369 13.9002C5.49829 13.8496 5.76219 13.8756 6.00202 13.9749C6.24185 14.0742 6.44683 14.2425 6.59105 14.4583C6.73527 14.6741 6.81225 14.9279 6.81225 15.1875C6.81166 15.5354 6.67318 15.8689 6.42717 16.1149C6.18116 16.3609 5.84766 16.4994 5.49975 16.5V16.5Z" fill="#6B21A8"/>
</g>
<defs>
<clipPath id="clip0_474_174">
<rect width="18" height="18" fill="white"/>
</clipPath>
</defs>
</svg>
